<svg xmlns="http://www.w3.org/2000/svg" xmlns:xlink="http://www.w3.org/1999/xlink" width="600" zoomAndPan="magnify"
  viewBox="0 0 450 280.499991" height="374" preserveAspectRatio="xMidYMid meet" version="1.0">
  <defs>
    <clipPath id="id1">
      <path
        d="M 125.328125 75.265625 L 259.742188 75.265625 L 259.742188 150.265625 L 125.328125 150.265625 Z M 125.328125 75.265625 "
        clip-rule="nonzero" />
    </clipPath>
    <clipPath id="id2">
      <path
        d="M 75.839844 95.644531 L 374.597656 95.644531 L 374.597656 178.636719 L 75.839844 178.636719 Z M 75.839844 95.644531 "
        clip-rule="nonzero" />
    </clipPath>
    <clipPath id="id3">
      <path d="M 75.839844 135 L 374.597656 135 L 374.597656 184.601562 L 75.839844 184.601562 Z M 75.839844 135 "
        clip-rule="nonzero" />
    </clipPath>
    <clipPath id="id4">
      <path d="M 75.839844 130 L 194.820312 130 L 194.820312 180.128906 L 75.839844 180.128906 Z M 75.839844 130 "
        clip-rule="nonzero" />
    </clipPath>
    <clipPath id="id5">
      <path
        d="M 75.839844 149.558594 L 138.128906 149.558594 L 138.128906 176.398438 L 75.839844 176.398438 Z M 75.839844 149.558594 "
        clip-rule="nonzero" />
    </clipPath>
    <clipPath id="id6">
      <path d="M 293 165 L 350 165 L 350 204.730469 L 293 204.730469 Z M 293 165 " clip-rule="nonzero" />
    </clipPath>
    <clipPath id="id7">
      <path
        d="M 75.839844 135.390625 L 374.597656 135.390625 L 374.597656 184.601562 L 75.839844 184.601562 Z M 75.839844 135.390625 "
        clip-rule="nonzero" />
    </clipPath>
  </defs>
  <g clip-path="url(#id1)">
    <path fill="#e91e63"
      d="M 259.742188 142.472656 C 259.742188 143.574219 259.714844 144.671875 259.664062 145.769531 C 259.609375 146.871094 259.527344 147.964844 259.417969 149.058594 C 259.3125 150.15625 259.175781 151.246094 259.015625 152.335938 C 258.855469 153.421875 258.667969 154.503906 258.453125 155.585938 C 258.238281 156.664062 257.996094 157.734375 257.730469 158.804688 C 257.460938 159.871094 257.167969 160.929688 256.847656 161.980469 C 256.53125 163.035156 256.183594 164.078125 255.816406 165.113281 C 255.445312 166.148438 255.046875 167.175781 254.628906 168.191406 C 254.207031 169.207031 253.761719 170.214844 253.289062 171.207031 C 252.820312 172.203125 252.328125 173.183594 251.808594 174.152344 C 251.289062 175.125 250.746094 176.082031 250.183594 177.023438 C 249.617188 177.96875 249.027344 178.898438 248.417969 179.8125 C 247.804688 180.726562 247.171875 181.625 246.519531 182.507812 C 245.863281 183.390625 245.1875 184.257812 244.488281 185.109375 C 243.789062 185.957031 243.070312 186.792969 242.332031 187.605469 C 241.59375 188.421875 240.835938 189.21875 240.058594 189.996094 C 239.28125 190.773438 238.484375 191.53125 237.671875 192.269531 C 236.855469 193.007812 236.023438 193.726562 235.171875 194.425781 C 234.320312 195.121094 233.457031 195.800781 232.570312 196.453125 C 231.6875 197.109375 230.789062 197.742188 229.875 198.355469 C 228.960938 198.964844 228.03125 199.554688 227.085938 200.117188 C 226.144531 200.683594 225.1875 201.226562 224.21875 201.746094 C 223.246094 202.261719 222.265625 202.757812 221.269531 203.226562 C 220.277344 203.699219 219.273438 204.144531 218.253906 204.5625 C 217.238281 204.984375 216.214844 205.378906 215.179688 205.75 C 214.140625 206.121094 213.097656 206.46875 212.046875 206.785156 C 210.992188 207.105469 209.933594 207.398438 208.867188 207.664062 C 207.800781 207.933594 206.726562 208.175781 205.648438 208.386719 C 204.570312 208.601562 203.484375 208.792969 202.398438 208.953125 C 201.308594 209.113281 200.21875 209.25 199.125 209.355469 C 198.03125 209.464844 196.933594 209.546875 195.835938 209.597656 C 194.734375 209.652344 193.636719 209.679688 192.535156 209.679688 C 191.4375 209.679688 190.335938 209.652344 189.238281 209.597656 C 188.140625 209.546875 187.042969 209.464844 185.949219 209.355469 C 184.855469 209.25 183.761719 209.113281 182.675781 208.953125 C 181.585938 208.792969 180.503906 208.601562 179.425781 208.386719 C 178.347656 208.175781 177.273438 207.933594 176.207031 207.664062 C 175.140625 207.398438 174.078125 207.105469 173.027344 206.785156 C 171.976562 206.46875 170.929688 206.121094 169.894531 205.75 C 168.859375 205.378906 167.832031 204.984375 166.816406 204.5625 C 165.800781 204.144531 164.796875 203.699219 163.800781 203.226562 C 162.808594 202.757812 161.824219 202.261719 160.855469 201.746094 C 159.886719 201.226562 158.929688 200.683594 157.984375 200.117188 C 157.042969 199.554688 156.113281 198.964844 155.199219 198.355469 C 154.285156 197.742188 153.386719 197.109375 152.5 196.453125 C 151.617188 195.800781 150.75 195.121094 149.902344 194.425781 C 149.050781 193.726562 148.21875 193.007812 147.402344 192.269531 C 146.589844 191.53125 145.792969 190.773438 145.015625 189.996094 C 144.234375 189.21875 143.476562 188.421875 142.738281 187.605469 C 142 186.792969 141.28125 185.957031 140.585938 185.109375 C 139.886719 184.257812 139.210938 183.390625 138.554688 182.507812 C 137.898438 181.625 137.265625 180.726562 136.65625 179.8125 C 136.042969 178.898438 135.457031 177.96875 134.890625 177.023438 C 134.324219 176.082031 133.785156 175.125 133.265625 174.152344 C 132.746094 173.183594 132.253906 172.203125 131.78125 171.207031 C 131.3125 170.214844 130.867188 169.207031 130.445312 168.191406 C 130.023438 167.175781 129.628906 166.148438 129.257812 165.113281 C 128.886719 164.078125 128.542969 163.035156 128.222656 161.980469 C 127.902344 160.929688 127.609375 159.871094 127.34375 158.804688 C 127.078125 157.734375 126.835938 156.664062 126.621094 155.585938 C 126.40625 154.503906 126.21875 153.421875 126.058594 152.335938 C 125.894531 151.246094 125.761719 150.15625 125.652344 149.058594 C 125.546875 147.964844 125.464844 146.871094 125.410156 145.769531 C 125.355469 144.671875 125.328125 143.574219 125.328125 142.472656 C 125.328125 141.375 125.355469 140.273438 125.410156 139.175781 C 125.464844 138.078125 125.546875 136.980469 125.652344 135.886719 C 125.761719 134.792969 125.894531 133.699219 126.058594 132.613281 C 126.21875 131.523438 126.40625 130.441406 126.621094 129.363281 C 126.835938 128.28125 127.078125 127.210938 127.34375 126.144531 C 127.609375 125.078125 127.902344 124.015625 128.222656 122.964844 C 128.542969 121.910156 128.886719 120.867188 129.257812 119.832031 C 129.628906 118.796875 130.023438 117.769531 130.445312 116.753906 C 130.867188 115.738281 131.3125 114.734375 131.78125 113.738281 C 132.253906 112.742188 132.746094 111.761719 133.265625 110.792969 C 133.785156 109.820312 134.324219 108.863281 134.890625 107.921875 C 135.457031 106.976562 136.042969 106.050781 136.65625 105.136719 C 137.265625 104.21875 137.898438 103.320312 138.554688 102.4375 C 139.210938 101.554688 139.886719 100.6875 140.585938 99.835938 C 141.28125 98.988281 142 98.15625 142.738281 97.339844 C 143.476562 96.523438 144.234375 95.726562 145.015625 94.949219 C 145.792969 94.171875 146.589844 93.414062 147.402344 92.675781 C 148.21875 91.9375 149.050781 91.21875 149.902344 90.519531 C 150.75 89.824219 151.617188 89.148438 152.5 88.492188 C 153.386719 87.835938 154.285156 87.203125 155.199219 86.59375 C 156.113281 85.980469 157.042969 85.394531 157.984375 84.828125 C 158.929688 84.261719 159.886719 83.71875 160.855469 83.203125 C 161.824219 82.683594 162.808594 82.1875 163.800781 81.71875 C 164.796875 81.25 165.800781 80.804688 166.816406 80.382812 C 167.832031 79.960938 168.859375 79.566406 169.894531 79.195312 C 170.929688 78.824219 171.976562 78.480469 173.027344 78.160156 C 174.078125 77.839844 175.140625 77.546875 176.207031 77.28125 C 177.273438 77.011719 178.347656 76.773438 179.425781 76.558594 C 180.503906 76.34375 181.585938 76.15625 182.675781 75.992188 C 183.761719 75.832031 184.855469 75.699219 185.949219 75.589844 C 187.042969 75.480469 188.140625 75.402344 189.238281 75.347656 C 190.335938 75.292969 191.4375 75.265625 192.535156 75.265625 C 193.636719 75.265625 194.734375 75.292969 195.835938 75.347656 C 196.933594 75.402344 198.03125 75.480469 199.125 75.589844 C 200.21875 75.699219 201.308594 75.832031 202.398438 75.992188 C 203.484375 76.15625 204.570312 76.34375 205.648438 76.558594 C 206.726562 76.773438 207.800781 77.011719 208.867188 77.28125 C 209.933594 77.546875 210.992188 77.839844 212.046875 78.160156 C 213.097656 78.480469 214.140625 78.824219 215.179688 79.195312 C 216.214844 79.566406 217.238281 79.960938 218.253906 80.382812 C 219.273438 80.804688 220.277344 81.25 221.269531 81.71875 C 222.265625 82.1875 223.246094 82.683594 224.21875 83.203125 C 225.1875 83.71875 226.144531 84.261719 227.085938 84.828125 C 228.03125 85.394531 228.960938 85.980469 229.875 86.59375 C 230.789062 87.203125 231.6875 87.835938 232.570312 88.492188 C 233.457031 89.148438 234.320312 89.824219 235.171875 90.519531 C 236.023438 91.21875 236.855469 91.9375 237.671875 92.675781 C 238.484375 93.414062 239.28125 94.171875 240.058594 94.949219 C 240.835938 95.726562 241.59375 96.523438 242.332031 97.339844 C 243.070312 98.15625 243.789062 98.988281 244.488281 99.835938 C 245.1875 100.6875 245.863281 101.554688 246.519531 102.4375 C 247.171875 103.320312 247.804688 104.21875 248.417969 105.136719 C 249.027344 106.050781 249.617188 106.976562 250.183594 107.921875 C 250.746094 108.863281 251.289062 109.820312 251.808594 110.792969 C 252.328125 111.761719 252.820312 112.742188 253.289062 113.738281 C 253.761719 114.734375 254.207031 115.738281 254.628906 116.753906 C 255.046875 117.769531 255.445312 118.796875 255.816406 119.832031 C 256.183594 120.867188 256.53125 121.910156 256.847656 122.964844 C 257.167969 124.015625 257.460938 125.078125 257.730469 126.144531 C 257.996094 127.210938 258.238281 128.28125 258.453125 129.363281 C 258.667969 130.441406 258.855469 131.523438 259.015625 132.613281 C 259.175781 133.699219 259.3125 134.792969 259.417969 135.886719 C 259.527344 136.980469 259.609375 138.078125 259.664062 139.175781 C 259.714844 140.273438 259.742188 141.375 259.742188 142.472656 Z M 259.742188 142.472656 "
      fill-opacity="1" fill-rule="nonzero" />
  </g>
  <g clip-path="url(#id2)">
    <path fill="#4c0bd1"
      d="M 142.007812 178.394531 C 191.761719 178.394531 233.835938 124.414062 250.992188 129.335938 C 259.160156 131.648438 263.257812 128.554688 266.882812 125.46875 C 271.886719 121.1875 275.972656 116.90625 288.664062 126.949219 C 300.675781 136.453125 307.777344 124.742188 315.882812 113.039062 C 322.527344 103.441406 329.847656 93.847656 341.105469 95.925781 C 366.09375 100.554688 374.597656 149.914062 374.597656 149.914062 L 75.839844 149.914062 C 75.839844 149.914062 107.320312 178.394531 142.007812 178.394531 "
      fill-opacity="1" fill-rule="nonzero" />
  </g>
  <g clip-path="url(#id3)">
    <path fill="#e43397"
      d="M 86.285156 156.921875 C 109.707031 172.652344 140.886719 170.339844 161.699219 151.328125 C 162.222656 150.808594 162.820312 150.359375 163.34375 149.914062 L 75.839844 149.914062 L 86.285156 156.921875 M 259.421875 166.316406 C 279.710938 186.519531 311.265625 190.027344 335.433594 174.742188 L 374.597656 149.914062 L 242.636719 149.914062 C 243.832031 150.957031 245.097656 152.074219 246.21875 153.191406 L 259.421875 166.316406 M 163.34375 149.914062 L 242.636719 149.914062 C 219.960938 130.601562 186.316406 130.453125 163.34375 149.914062 "
      fill-opacity="1" fill-rule="nonzero" />
  </g>
  <g clip-path="url(#id4)">
    <path fill="#00c4cc"
      d="M 180.304688 130.082031 C 184.898438 130.082031 189.644531 131.765625 194.523438 135.746094 L 194.746094 135.929688 C 183.492188 137.453125 172.5625 142.105469 163.34375 149.914062 L 150.734375 149.914062 C 159.664062 139.265625 169.578125 130.074219 180.304688 130.082031 M 75.839844 149.914062 C 75.839844 149.914062 97.710938 169.699219 125.082031 176.289062 C 120.738281 178.917969 116.527344 180.019531 112.496094 180.019531 C 91.492188 180.019531 75.839844 149.914062 75.839844 149.914062 "
      fill-opacity="1" fill-rule="nonzero" />
  </g>
  <g clip-path="url(#id5)">
    <path fill="#9760ff"
      d="M 75.839844 149.914062 L 86.285156 156.921875 C 96.667969 163.894531 108.574219 167.324219 120.425781 167.324219 C 126.371094 167.324219 132.308594 166.457031 138.03125 164.746094 C 133.949219 169.199219 129.945312 173.089844 126.34375 175.488281 C 125.925781 175.765625 125.5 176.035156 125.082031 176.289062 C 97.710938 169.699219 75.839844 149.914062 75.839844 149.914062 "
      fill-opacity="1" fill-rule="nonzero" />
  </g>
  <path fill="#00c4cc"
    d="M 211.785156 149.914062 L 242.636719 149.914062 C 243.832031 150.957031 245.097656 152.074219 246.21875 153.191406 L 259.421875 166.316406 C 262.421875 169.304688 265.664062 171.925781 269.097656 174.175781 C 269.058594 174.191406 269.015625 174.207031 268.96875 174.21875 C 264.144531 175.789062 259.707031 176.5 255.542969 176.5 C 238.566406 176.5 226.21875 164.605469 211.039062 150.429688 C 211.285156 150.257812 211.539062 150.085938 211.785156 149.914062 "
    fill-opacity="1" fill-rule="nonzero" />
  <path fill="#9760ff"
    d="M 210.488281 149.914062 L 211.785156 149.914062 C 211.539062 150.085938 211.285156 150.257812 211.039062 150.429688 C 210.851562 150.257812 210.671875 150.085938 210.488281 149.914062 "
    fill-opacity="1" fill-rule="nonzero" />
  <g clip-path="url(#id6)">
    <path fill="#00c4cc"
      d="M 349.941406 165.542969 C 339.710938 180.945312 333.890625 202.476562 317.90625 204.566406 C 317.011719 204.679688 316.164062 204.734375 315.351562 204.734375 C 305.523438 204.734375 301.21875 196.722656 296.792969 188.710938 C 295.832031 186.96875 294.871094 185.222656 293.832031 183.5625 C 296.785156 183.996094 299.761719 184.210938 302.75 184.210938 C 314.027344 184.210938 325.371094 181.105469 335.433594 174.742188 L 349.941406 165.542969 "
      fill-opacity="1" fill-rule="nonzero" />
  </g>
  <g clip-path="url(#id7)">
    <path fill="#cb88ff"
      d="M 194.746094 135.929688 C 200.476562 140.640625 205.621094 145.421875 210.488281 149.914062 L 163.34375 149.914062 C 172.5625 142.105469 183.492188 137.453125 194.746094 135.929688 M 75.839844 149.914062 L 150.734375 149.914062 C 146.683594 154.765625 142.320312 160.070312 138.03125 164.746094 C 132.308594 166.457031 126.371094 167.324219 120.425781 167.324219 C 108.574219 167.324219 96.667969 163.894531 86.285156 156.921875 L 75.839844 149.914062 M 210.488281 149.914062 L 242.636719 149.914062 L 210.488281 149.914062 M 242.636719 149.914062 L 374.597656 149.914062 C 363.109375 149.914062 355.804688 156.722656 349.941406 165.542969 L 335.433594 174.742188 C 325.371094 181.105469 314.027344 184.210938 302.75 184.210938 C 299.761719 184.210938 296.785156 183.996094 293.832031 183.5625 C 290.132812 177.589844 285.605469 172.6875 277.554688 172.6875 C 275.09375 172.6875 272.296875 173.148438 269.097656 174.175781 C 265.664062 171.925781 262.421875 169.304688 259.421875 166.316406 L 246.21875 153.191406 C 245.097656 152.074219 243.832031 150.957031 242.636719 149.914062 "
      fill-opacity="1" fill-rule="nonzero" />
  </g>
</svg>